<svg width="28" height="28" viewBox="0 0 28 28" fill="none" xmlns="http://www.w3.org/2000/svg">
<path d="M15.0737 2.63673L22.6687 6.73173C23.5553 7.21006 23.5553 8.57506 22.6687 9.0534L15.0737 13.1484C14.397 13.5101 13.6037 13.5101 12.927 13.1484L5.33199 9.0534C4.44533 8.57506 4.44533 7.21006 5.33199 6.73173L12.927 2.63673C13.6037 2.27506 14.397 2.27506 15.0737 2.63673Z" stroke="white" stroke-width="1.5" stroke-linecap="round" stroke-linejoin="round"/>
<path d="M4.21134 11.8184L11.2697 15.3534C12.1447 15.7967 12.7047 16.695 12.7047 17.675V24.3484C12.7047 25.3167 11.6897 25.935 10.8263 25.5034L3.76801 21.9684C2.89301 21.525 2.33301 20.6267 2.33301 19.6467V12.9734C2.33301 12.005 3.34801 11.3867 4.21134 11.8184Z" stroke="white" stroke-width="1.5" stroke-linecap="round" stroke-linejoin="round"/>
<path d="M23.7883 11.8184L16.7299 15.3534C15.8549 15.7967 15.2949 16.695 15.2949 17.675V24.3484C15.2949 25.3167 16.3099 25.935 17.1733 25.5034L24.2316 21.9684C25.1066 21.525 25.6666 20.6267 25.6666 19.6467V12.9734C25.6666 12.005 24.6516 11.3867 23.7883 11.8184Z" stroke="white" stroke-width="1.5" stroke-linecap="round" stroke-linejoin="round"/>
</svg>
