<svg width="12" height="14" viewBox="0 0 12 14" fill="none" xmlns="http://www.w3.org/2000/svg">
<g id="Calendar">
<path id="Calendar_2" fill-rule="evenodd" clip-rule="evenodd" d="M8.94573 0.735346C8.91517 0.508323 8.72207 0.333344 8.48841 0.333344C8.23351 0.333344 8.02687 0.541583 8.02687 0.79846V1.31269H3.97876V0.79846L3.97455 0.735346C3.94398 0.508323 3.75088 0.333344 3.51722 0.333344C3.26232 0.333344 3.05569 0.541583 3.05569 0.79846V1.32424C1.16437 1.4545 0 2.67996 0 4.6572V10.2694C0 12.3915 1.30556 13.6667 3.3975 13.6667H8.60243C10.6969 13.6667 12 12.4128 12 10.3163V4.6572C12.006 2.67925 10.8454 1.45413 8.94995 1.32418V0.79846L8.94573 0.735346ZM8.02687 2.24292V2.83925L8.03109 2.90237C8.06165 3.12939 8.25475 3.30437 8.48841 3.30437C8.74331 3.30437 8.94995 3.09613 8.94995 2.83925V2.25667C10.329 2.37141 11.0813 3.20184 11.0769 4.65578V4.92513H0.923073V4.6572C0.923073 3.20418 1.6795 2.37199 3.05569 2.25676V2.83925L3.0599 2.90237C3.09046 3.12939 3.28356 3.30437 3.51722 3.30437C3.77212 3.30437 3.97876 3.09613 3.97876 2.83925V2.24292H8.02687ZM0.923073 5.85536V10.2694C0.923073 11.8711 1.80901 12.7364 3.3975 12.7364H8.60243C10.1964 12.7364 11.0769 11.8892 11.0769 10.3163L11.0769 5.85536H0.923073ZM9.20079 7.81222C9.20079 7.55535 8.99415 7.34711 8.73925 7.34711L8.67092 7.35135C8.44565 7.38215 8.27201 7.57675 8.27201 7.81222C8.27201 8.0691 8.47865 8.27734 8.73925 8.27734L8.80188 8.27309C9.02715 8.24229 9.20079 8.04769 9.20079 7.81222ZM6.00852 7.34711C6.26342 7.34711 6.47005 7.55535 6.47005 7.81222C6.47005 8.04769 6.29642 8.24229 6.07114 8.27309L6.00852 8.27734C5.74792 8.27734 5.54128 8.0691 5.54128 7.81222C5.54128 7.57675 5.71491 7.38215 5.94019 7.35135L6.00852 7.34711ZM3.73362 7.81222C3.73362 7.55535 3.52698 7.34711 3.27208 7.34711L3.20375 7.35135C2.97848 7.38215 2.80485 7.57675 2.80485 7.81222C2.80485 8.0691 3.01148 8.27734 3.26638 8.27734L3.33471 8.27309C3.55999 8.24229 3.73362 8.04769 3.73362 7.81222ZM8.73925 9.75735C8.99415 9.75735 9.20079 9.96559 9.20079 10.2225C9.20079 10.4579 9.02715 10.6525 8.80188 10.6833L8.73925 10.6876C8.47865 10.6876 8.27201 10.4793 8.27201 10.2225C8.27201 9.987 8.44565 9.7924 8.67092 9.7616L8.73925 9.75735ZM6.47005 10.2225C6.47005 9.96559 6.26342 9.75735 6.00852 9.75735L5.94019 9.7616C5.71491 9.7924 5.54128 9.987 5.54128 10.2225C5.54128 10.4793 5.74792 10.6876 6.00852 10.6876L6.07114 10.6833C6.29642 10.6525 6.47005 10.4579 6.47005 10.2225ZM3.27208 9.75735C3.52698 9.75735 3.73362 9.96559 3.73362 10.2225C3.73362 10.4579 3.55999 10.6525 3.33471 10.6833L3.26638 10.6876C3.01148 10.6876 2.80485 10.4793 2.80485 10.2225C2.80485 9.987 2.97848 9.7924 3.20375 9.7616L3.27208 9.75735Z" fill="white"/>
</g>
</svg>
