<svg width="45" height="44" viewBox="0 0 45 44" fill="none" xmlns="http://www.w3.org/2000/svg">
<g id="chart 1">
<g id="Group 1261153195">
<path id="Vector" d="M3.07143 35.5577H41.9286C42.1199 35.5577 42.3034 35.4817 42.4387 35.3464C42.574 35.2112 42.65 35.0277 42.65 34.8363C42.65 34.645 42.574 34.4615 42.4387 34.3262C42.3034 34.1909 42.1199 34.1149 41.9286 34.1149H3.07143C2.88009 34.1149 2.6966 34.1909 2.5613 34.3262C2.42601 34.4615 2.35 34.645 2.35 34.8363C2.35 35.0277 2.42601 35.2112 2.5613 35.3464C2.69659 35.4817 2.88009 35.5577 3.07143 35.5577Z" fill="white" stroke="white" stroke-width="0.3"/>
<path id="Vector_2" d="M12.2592 24.4424L12.3644 24.3372C12.4997 24.4725 12.5757 24.656 12.5757 24.8473V31.3672V31.3673H12.4257C12.4258 31.4443 12.4103 31.5205 12.3801 31.5914C12.35 31.6623 12.3059 31.7263 12.2503 31.7797C12.1948 31.833 12.1291 31.8746 12.0571 31.902C11.9851 31.9293 11.9084 31.9418 11.8314 31.9387L12.2592 24.4424ZM12.2592 24.4424L12.3644 24.3372C12.2291 24.2019 12.0456 24.1259 11.8543 24.1259H7.07143C6.88009 24.1259 6.6966 24.2019 6.5613 24.3372C6.42601 24.4725 6.35 24.656 6.35 24.8473V31.3673C6.35 31.5586 6.42601 31.7421 6.5613 31.8774C6.6966 32.0127 6.88009 32.0887 7.07143 32.0887H11.8286L12.2592 24.4424ZM11.1329 25.5687V30.6459H7.79286V25.5687H11.1329Z" fill="white" stroke="white" stroke-width="0.3"/>
<path id="Vector_3" d="M21.0508 15.6687L20.9447 15.7748L21.0508 15.6687C20.9155 15.5334 20.732 15.4574 20.5407 15.4574H15.7521C15.5608 15.4574 15.3773 15.5334 15.242 15.6687C15.1067 15.804 15.0307 15.9875 15.0307 16.1789V31.3674C15.0307 31.5588 15.1067 31.7423 15.242 31.8775C15.3773 32.0128 15.5608 32.0889 15.7521 32.0889H20.5407C20.732 32.0889 20.9155 32.0128 21.0508 31.8775C21.1861 31.7423 21.2621 31.5588 21.2621 31.3674V16.1789C21.2621 15.9875 21.1861 15.804 21.0508 15.6687ZM19.8192 16.9003V30.646H16.4735V16.9003H19.8192Z" fill="white" stroke="white" stroke-width="0.3"/>
<path id="Vector_4" d="M24.4601 32.0889H29.2487C29.44 32.0889 29.6235 32.0129 29.7588 31.8776C29.8941 31.7423 29.9701 31.5588 29.9701 31.3674V18.7274C29.9701 18.5361 29.8941 18.3526 29.7588 18.2173C29.6235 18.082 29.44 18.006 29.2487 18.006H24.4601C24.2688 18.006 24.0853 18.082 23.95 18.2173C23.8147 18.3526 23.7387 18.5361 23.7387 18.7274V31.3674C23.7387 31.5588 23.8147 31.7423 23.95 31.8776C24.0853 32.0129 24.2688 32.0889 24.4601 32.0889ZM28.5272 19.4489V30.646H25.1815V19.4489H28.5272Z" fill="white" stroke="white" stroke-width="0.3"/>
<path id="Vector_5" d="M33.1691 32.0887H37.9291C38.1204 32.0887 38.3039 32.0127 38.4392 31.8774C38.5745 31.7421 38.6505 31.5586 38.6505 31.3673V8.59584C38.6505 8.40451 38.5745 8.22101 38.4392 8.08572C38.3039 7.95042 38.1204 7.87441 37.9291 7.87441H33.1691C32.9777 7.87441 32.7943 7.95042 32.659 8.08572C32.5237 8.22101 32.4477 8.40451 32.4477 8.59584V31.3673C32.4477 31.5586 32.5237 31.7421 32.659 31.8774C32.7943 32.0127 32.9777 32.0887 33.1691 32.0887ZM37.2077 9.31727V30.6458H33.8678L33.8904 9.31727H37.2077Z" fill="white" stroke="white" stroke-width="0.3"/>
<path id="Vector_6" d="M10.976 13.3321C11.4557 13.6538 12.0199 13.8262 12.5974 13.8274C12.9816 13.8282 13.3621 13.7532 13.7173 13.6067C14.0724 13.4603 14.3952 13.2452 14.6671 12.9738C14.939 12.7025 15.1547 12.3802 15.3019 12.0253C15.4491 11.6705 15.5249 11.2901 15.5249 10.9059C15.5249 10.3284 15.3537 9.76381 15.033 9.28351C14.7122 8.80322 14.2563 8.42877 13.7228 8.20748C13.1894 7.98619 12.6023 7.92798 12.0357 8.04022C11.4692 8.15245 10.9486 8.4301 10.5398 8.83806C10.131 9.24603 9.85231 9.76601 9.7389 10.3323C9.6255 10.8986 9.6825 11.4858 9.90269 12.0198C10.1229 12.5537 10.4964 13.0104 10.976 13.3321ZM11.7777 9.68516C12.0203 9.52184 12.3058 9.43411 12.5983 9.43309C12.7924 9.4324 12.9848 9.46997 13.1645 9.54365C13.3441 9.61732 13.5075 9.72566 13.6453 9.86248C13.7831 9.9993 13.8926 10.1619 13.9675 10.341C14.0424 10.5202 14.0814 10.7123 14.082 10.9065C14.0831 11.1989 13.9973 11.4851 13.8357 11.7288C13.6741 11.9725 13.4439 12.1628 13.1741 12.2757C12.9043 12.3885 12.6071 12.4189 12.3201 12.3628C12.0331 12.3068 11.7691 12.1669 11.5616 11.9608C11.3541 11.7548 11.2124 11.4918 11.1543 11.2052C11.0963 10.9186 11.1245 10.6212 11.2355 10.3506C11.3464 10.0801 11.5351 9.84848 11.7777 9.68516Z" fill="white" stroke="white" stroke-width="0.3"/>
<path id="Vector_7" d="M12.8598 19.6036L12.8598 19.6037L12.8654 19.6035C12.9606 19.6003 13.0543 19.5782 13.141 19.5386C13.2275 19.499 13.3054 19.4427 13.37 19.373C13.3702 19.3729 13.3703 19.3727 13.3704 19.3726L19.0841 13.2761L19.0843 13.2758C19.2153 13.1353 19.285 12.9486 19.2783 12.7566C19.2715 12.5647 19.1888 12.3833 19.0483 12.2524C18.9078 12.1215 18.7211 12.0517 18.5291 12.0585C18.3373 12.0652 18.156 12.1479 18.0251 12.2882C18.025 12.2883 18.0249 12.2884 18.0249 12.2884L12.3109 18.3853L12.3109 18.3852L12.3084 18.388C12.2448 18.4593 12.1961 18.5424 12.1649 18.6327C12.1337 18.723 12.1208 18.8185 12.1268 18.9138C12.1329 19.0091 12.1578 19.1022 12.2001 19.1878C12.242 19.2726 12.3001 19.3483 12.3712 19.4106C12.504 19.534 12.6785 19.6029 12.8598 19.6036Z" fill="white" stroke="white" stroke-width="0.3"/>
</g>
</g>
</svg>
