<svg width="44" height="44" viewBox="0 0 44 44" fill="none" xmlns="http://www.w3.org/2000/svg">
<path fill-rule="evenodd" clip-rule="evenodd" d="M29.1702 30.2701C29.0248 30.574 28.9432 30.9152 28.9432 31.275V34.3612C28.9432 34.9759 29.1865 35.5666 29.6202 36.0033L32.7289 39.1346C33.3941 39.8053 34.3982 40.0081 35.2718 39.6483C36.1453 39.2884 36.715 38.4367 36.715 37.4924V36.7152H37.4922C38.4349 36.7152 39.2851 36.1471 39.6465 35.2759C40.0071 34.4047 39.8074 33.4021 39.1405 32.7353L36.0318 29.6266C35.5951 29.1891 35.0021 28.9435 34.3835 28.9435H31.2748C30.9149 28.9435 30.5737 29.0251 30.2699 29.1704L22.4981 21.3994C22.195 21.0963 21.7023 21.0963 21.3992 21.3994C21.0961 21.7025 21.0961 22.1953 21.3992 22.4984L29.1702 30.2701ZM35.1606 37.4924C35.1606 37.8072 34.971 38.0908 34.6796 38.2113C34.3881 38.331 34.0539 38.2634 33.8317 38.0395L30.723 34.9083C30.5784 34.763 30.4976 34.5656 30.4976 34.3612V31.275C30.4976 30.846 30.8458 30.4978 31.2748 30.4978H34.3835C34.5894 30.4978 34.7876 30.5794 34.9329 30.7255L38.0416 33.8342C38.2639 34.0565 38.3307 34.3907 38.2103 34.6814C38.0898 34.9712 37.8061 35.1609 37.4922 35.1609H35.9378C35.7311 35.1609 35.5337 35.2433 35.3876 35.3894C35.2422 35.5355 35.1599 35.7329 35.1606 35.9396V37.4924Z" fill="white"/>
<path fill-rule="evenodd" clip-rule="evenodd" d="M27.9047 37.1474C26.0597 37.8717 24.0507 38.2697 21.9492 38.2697C12.9418 38.2697 5.62857 30.9564 5.62857 21.949C5.62857 12.9415 12.9418 5.62832 21.9492 5.62832C30.9567 5.62832 38.2699 12.9415 38.2699 21.949C38.2699 24.045 37.8743 26.0494 37.1531 27.8897C36.9969 28.2892 37.1943 28.7407 37.5938 28.8969C37.9932 29.0531 38.444 28.8565 38.6002 28.457C39.3906 26.4403 39.8243 24.2448 39.8243 21.949C39.8243 12.0835 31.8147 4.07397 21.9492 4.07397C12.0838 4.07397 4.07422 12.0835 4.07422 21.949C4.07422 31.8144 12.0838 39.824 21.9492 39.824C24.2512 39.824 26.4514 39.388 28.4728 38.5937C28.8723 38.4375 29.0689 37.986 28.9127 37.5865C28.7557 37.1871 28.3042 36.9904 27.9047 37.1474Z" fill="white"/>
<path fill-rule="evenodd" clip-rule="evenodd" d="M26.2793 31.0791C24.9666 31.7032 23.4985 32.0521 21.9496 32.0521C16.3734 32.0521 11.8463 27.5251 11.8463 21.9489C11.8463 16.3727 16.3734 11.8456 21.9496 11.8456C27.5258 11.8456 32.0529 16.3727 32.0529 21.9489C32.0529 23.4978 31.7039 24.9659 31.0798 26.2777C30.8957 26.6656 31.0604 27.1295 31.4475 27.3137C31.8353 27.4979 32.2992 27.3331 32.4834 26.9453C33.2039 25.4306 33.6072 23.7364 33.6072 21.9489C33.6072 15.5146 28.3838 10.2913 21.9496 10.2913C15.5154 10.2913 10.292 15.5146 10.292 21.9489C10.292 28.3831 15.5154 33.6065 21.9496 33.6065C23.7371 33.6065 25.4313 33.2031 26.9461 32.4827C27.3339 32.2985 27.4986 31.8345 27.3145 31.4467C27.1303 31.0597 26.6663 30.8949 26.2793 31.0791Z" fill="white"/>
<path fill-rule="evenodd" clip-rule="evenodd" d="M22.1658 25.8287C22.0936 25.8326 22.0213 25.8349 21.949 25.8349C19.804 25.8349 18.0631 24.094 18.0631 21.949C18.0631 19.804 19.804 18.0631 21.949 18.0631C24.094 18.0631 25.8349 19.804 25.8349 21.949C25.8349 22.0213 25.8326 22.0936 25.8287 22.1658C25.8054 22.5941 26.1341 22.9609 26.5623 22.9842C26.9905 23.0083 27.3574 22.6796 27.3807 22.2513C27.3861 22.1511 27.3892 22.05 27.3892 21.949C27.3892 18.9468 24.9512 16.5088 21.949 16.5088C18.9468 16.5088 16.5088 18.9468 16.5088 21.949C16.5088 24.9512 18.9468 27.3892 21.949 27.3892C22.05 27.3892 22.1511 27.3861 22.2513 27.3807C22.6796 27.3574 23.0083 26.9905 22.985 26.5623C22.9609 26.1341 22.5941 25.8054 22.1658 25.8287Z" fill="white"/>
</svg>
